<svg id="svg" version="1.1" xmlns="http://www.w3.org/2000/svg" xmlns:xlink="http://www.w3.org/1999/xlink" width="400"
    height="400" viewBox="0, 0, 400,400">
    <g id="svgg">
        <path id="path0"
            d="M299.000 104.348 C 291.982 106.370,288.333 110.990,288.066 118.189 C 287.928 121.923,288.826 125.569,290.229 126.972 C 290.543 127.286,290.800 127.664,290.800 127.812 C 290.800 127.960,303.403 140.610,318.806 155.923 C 334.209 171.235,346.749 183.952,346.673 184.182 C 346.576 184.471,295.332 184.667,180.167 184.817 C 67.510 184.965,13.277 185.169,12.181 185.449 C 6.906 186.798,1.208 192.528,1.198 196.496 C 1.196 196.993,0.926 197.916,0.598 198.546 C -0.089 199.861,-0.179 201.073,0.394 201.267 C 0.611 201.340,0.940 202.210,1.126 203.200 C 2.197 208.916,6.481 213.135,12.730 214.629 C 14.622 215.081,42.604 215.174,180.676 215.186 C 304.961 215.196,346.424 215.315,346.637 215.659 C 346.811 215.941,336.090 226.891,318.860 244.028 C 303.427 259.378,290.800 272.054,290.800 272.197 C 290.800 272.340,290.543 272.714,290.229 273.028 C 287.647 275.611,287.259 283.510,289.491 288.042 C 290.739 290.575,292.818 293.200,293.575 293.200 C 293.777 293.200,294.181 293.425,294.471 293.700 C 295.897 295.049,299.264 296.100,302.310 296.148 C 308.682 296.248,309.582 295.624,324.600 280.704 C 398.220 207.562,398.800 206.959,398.800 203.549 C 398.800 203.093,399.091 202.109,399.446 201.360 C 400.040 200.108,400.040 199.892,399.446 198.640 C 399.091 197.891,398.800 196.907,398.800 196.451 C 398.800 193.054,398.886 193.143,324.733 119.459 C 308.645 103.473,306.470 102.196,299.000 104.348 "
            stroke="none" fill="#2c3e50" fill-rule="evenodd"></path>
        <path id="path1" d="" stroke="none" fill="#2c3e50" fill-rule="evenodd"></path>
        <path id="path2"
            d="M299.000 104.348 C 291.982 106.370,288.333 110.990,288.066 118.189 C 287.928 121.923,288.826 125.569,290.229 126.972 C 290.543 127.286,290.800 127.664,290.800 127.812 C 290.800 127.960,303.403 140.610,318.806 155.923 C 334.209 171.235,346.749 183.952,346.673 184.182 C 346.576 184.471,295.332 184.667,180.167 184.817 C 67.510 184.965,13.277 185.169,12.181 185.449 C 6.906 186.798,1.208 192.528,1.198 196.496 C 1.196 196.993,0.926 197.916,0.598 198.546 C -0.089 199.861,-0.179 201.073,0.394 201.267 C 0.611 201.340,0.940 202.210,1.126 203.200 C 2.197 208.916,6.481 213.135,12.730 214.629 C 14.622 215.081,42.604 215.174,180.676 215.186 C 304.961 215.196,346.424 215.315,346.637 215.659 C 346.811 215.941,336.090 226.891,318.860 244.028 C 303.427 259.378,290.800 272.054,290.800 272.197 C 290.800 272.340,290.543 272.714,290.229 273.028 C 287.647 275.611,287.259 283.510,289.491 288.042 C 290.739 290.575,292.818 293.200,293.575 293.200 C 293.777 293.200,294.181 293.425,294.471 293.700 C 295.897 295.049,299.264 296.100,302.310 296.148 C 308.682 296.248,309.582 295.624,324.600 280.704 C 398.220 207.562,398.800 206.959,398.800 203.549 C 398.800 203.093,399.091 202.109,399.446 201.360 C 400.040 200.108,400.040 199.892,399.446 198.640 C 399.091 197.891,398.800 196.907,398.800 196.451 C 398.800 193.054,398.886 193.143,324.733 119.459 C 308.645 103.473,306.470 102.196,299.000 104.348 "
            stroke="none" fill="#2c3e50" fill-rule="evenodd"></path>
        <path id="path3" d="" stroke="none" fill="#2c3e50" fill-rule="evenodd"></path>
        <path id="path4" d="" stroke="none" fill="#2c3e50" fill-rule="evenodd"></path>
    </g>
</svg>